<svg width="120" height="118" viewBox="0 0 120 118" fill="none" xmlns="http://www.w3.org/2000/svg">
<path d="M45.7447 36.8189C42.7732 41.4211 44.4875 49.13 45.7447 52.4666C45.7447 50.7408 45.9732 46.4837 46.7732 43.147C47.8018 39.12 50.5447 36.8189 50.5447 30.9509C50.5447 26.3486 45.859 17.8344 43.5732 14.1526C45.5161 19.7904 48.7161 32.2166 45.7447 36.8189Z" fill="#4E2D2D"/>
<path d="M77.7456 36.8189C74.7742 41.4211 76.4885 49.13 77.7456 52.4666C77.7456 50.7408 77.9742 46.4837 78.7742 43.147C79.8028 39.12 82.5456 36.8189 82.5456 30.9509C82.5456 26.3486 77.8599 17.8344 75.5742 14.1526C77.5171 19.7904 80.7171 32.2166 77.7456 36.8189Z" fill="#4E2D2D"/>
<path d="M65.7476 21.7458C67.919 25.0825 68.3761 33.3666 65.7476 37.2785C65.7476 36.5882 65.519 33.7118 64.719 28.4191C63.6904 21.7458 60.9476 26.233 58.8904 17.2586C57.1761 10.125 63.8047 2.76137 67.3476 0C67.6904 0.575286 67.919 2.87643 65.7476 7.82389C63.119 14.037 63.6904 18.4092 65.7476 21.7458Z" fill="#4E2D2D"/>
<path fill-rule="evenodd" clip-rule="evenodd" d="M15.2 79.231C20 79.231 24 75.4341 24 70.7167C24 70.1451 24.475 69.5662 25.0467 69.5662H96.2C109.214 69.5662 119.557 80.8641 112.849 92.016C106.866 101.963 96.7059 111.47 80.7977 115.699C80.4067 115.803 80 115.418 80 115.014C80 112.828 78.1714 110.987 75.8857 110.987C73.6 110.987 71.7714 112.713 71.7714 115.014C71.7714 116.048 71.1698 117.377 70.1405 117.474C67.6591 117.709 65.0957 117.775 62.4 117.775C54.9446 117.853 48.228 116.922 42.2503 115.306C38.6717 114.339 37.9429 109.056 37.9429 105.349C37.9429 100.286 33.7143 96.2594 28.5714 96.2594C22.8505 96.2594 14.0855 99.0106 10.5751 94.4933C4.32611 86.4518 1.13043 77.9753 0.228571 71.8673C0.106165 70.635 1.07408 69.5662 2.31247 69.5662H5.35712C5.9962 69.5662 6.4 70.0776 6.4 70.7167C6.4 75.4341 10.2857 79.231 15.2 79.231ZM84.6857 99.7112C89.8286 99.7112 94.0572 95.6842 94.0572 90.6216C94.0572 85.5591 89.8286 81.5321 84.6857 81.5321C79.5429 81.5321 75.3143 85.5591 75.3143 90.6216C75.3143 95.5691 79.5429 99.7112 84.6857 99.7112ZM48.4571 86.0193C48.4571 88.5506 46.4 90.6216 43.7714 90.6216C41.1429 90.6216 39.0857 88.5506 39.0857 86.0193C39.0857 83.4881 41.1429 81.4171 43.7714 81.4171C46.4 81.5321 48.4571 83.4881 48.4571 86.0193Z" fill="#4E2D2D"/>
</svg>
