<svg width="26" height="20" viewBox="0 0 26 20" fill="none" xmlns="http://www.w3.org/2000/svg">
<path d="M20.5 5H21.75C23.1313 5 24.25 6.11875 24.25 7.5V16.25C24.25 17.6313 23.1313 18.75 21.75 18.75H8C6.61875 18.75 5.5 17.6313 5.5 16.25V15" stroke="white" stroke-width="2" stroke-linecap="round" stroke-linejoin="round"/>
<path d="M4.35375 14.2713H17.895C19.3338 14.2713 20.4988 13.105 20.4988 11.6675V3.855C20.5 2.41625 19.3337 1.25 17.8962 1.25H4.35375C2.91625 1.25 1.75 2.41625 1.75 3.85375V11.6663C1.75 13.105 2.91625 14.2713 4.35375 14.2713Z" stroke="white" stroke-width="2" stroke-linecap="round" stroke-linejoin="round"/>
<path d="M16.125 5H16.75" stroke="white" stroke-width="2" stroke-linecap="round" stroke-linejoin="round"/>
<path d="M5.5 10.625H6.125" stroke="white" stroke-width="2" stroke-linecap="round" stroke-linejoin="round"/>
<path d="M12.5707 6.37876C13.3332 7.14126 13.3332 8.37876 12.5707 9.14126C11.8082 9.90376 10.5707 9.90376 9.8082 9.14126C9.0457 8.37876 9.0457 7.14126 9.8082 6.37876C10.5707 5.61626 11.8082 5.61626 12.5707 6.37876Z" stroke="white" stroke-width="2" stroke-linecap="round" stroke-linejoin="round"/>
</svg>
