<svg width="24" height="16" viewBox="0 0 24 16" fill="none" xmlns="http://www.w3.org/2000/svg">
<path d="M21.12 0.320068C20.3246 0.320068 19.68 0.964708 19.68 1.76007C19.68 2.55543 20.3246 3.20007 21.12 3.20007C21.9154 3.20007 22.56 2.55543 22.56 1.76007C22.56 0.964708 21.9154 0.320068 21.12 0.320068ZM21.12 1.28007C21.385 1.28007 21.6 1.49511 21.6 1.76007C21.6 2.02503 21.385 2.24007 21.12 2.24007C20.855 2.24007 20.64 2.02503 20.64 1.76007C20.64 1.49511 20.855 1.28007 21.12 1.28007ZM6.81938 2.22319C5.65633 2.22319 4.90727 2.85817 4.87031 3.86569H5.90062C5.9299 3.40441 6.27241 3.11288 6.78937 3.11288C7.31017 3.11288 7.6425 3.38597 7.6425 3.81413C7.6425 4.24949 7.29904 4.54444 6.79312 4.54444H6.14344V5.37507H6.80437C7.40245 5.37507 7.76813 5.66276 7.76813 6.12788C7.76813 6.58196 7.3804 6.89569 6.82312 6.89569C6.25096 6.89569 5.86999 6.61187 5.83687 6.16163H4.77094C4.81894 7.16531 5.62291 7.82288 6.81187 7.82288C8.02627 7.82288 8.90531 7.14727 8.90531 6.21319C8.90531 5.51239 8.44712 5.02494 7.71656 4.94382V4.87726C8.3108 4.75534 8.69812 4.27483 8.69812 3.65851C8.69812 2.82091 7.91185 2.22319 6.81938 2.22319ZM12.0094 2.22319C10.6212 2.22319 9.7875 3.29362 9.7875 5.06194C9.7875 5.79298 9.93855 6.40505 10.2337 6.85913C10.5995 7.48313 11.2197 7.82288 11.9916 7.82288C13.1839 7.82288 14.0287 7.03649 14.0287 5.92913C14.0288 4.91009 13.287 4.16101 12.2756 4.16101C11.6555 4.16101 11.1605 4.44455 10.9172 4.94663H10.8506C10.8285 3.84311 11.2713 3.13819 12.0019 3.13819C12.419 3.13819 12.7513 3.35919 12.855 3.71007H13.9584C13.8068 2.82063 13.0207 2.22319 12.0094 2.22319ZM17.085 2.22319C15.7746 2.22319 14.97 3.24871 14.97 5.01319C14.97 6.78151 15.7674 7.82288 17.085 7.82288C18.4026 7.82288 19.1991 6.77758 19.1991 5.01694C19.1991 3.2491 18.3916 2.22319 17.085 2.22319ZM17.085 3.13444C17.6936 3.13444 18.0703 3.77287 18.0703 5.01319C18.0703 6.26119 17.6975 6.91444 17.085 6.91444C16.4764 6.91444 16.0997 6.25735 16.0997 5.01319C16.0997 3.77671 16.4797 3.13444 17.085 3.13444ZM11.9831 5.02069C12.5409 5.02069 12.9469 5.41906 12.9469 5.96194C12.9469 6.49762 12.5261 6.90742 11.9794 6.90694C11.4331 6.90694 11.0156 6.49357 11.0156 5.95069C11.0156 5.41933 11.4254 5.02069 11.9831 5.02069ZM20.5444 6.23194C20.4366 6.23736 20.3339 6.2789 20.2526 6.34988C20.1714 6.42086 20.1164 6.51714 20.0966 6.62318C20.0768 6.72922 20.0932 6.83885 20.1434 6.93439C20.1935 7.02992 20.2743 7.10579 20.3728 7.14976C21.2487 7.55645 21.9353 8.0243 22.3837 8.50257C22.8322 8.98083 23.04 9.44866 23.04 9.92007C23.04 10.4272 22.7985 10.9334 22.2778 11.4463C21.7572 11.9592 20.9636 12.4537 19.9613 12.8713C17.9566 13.7066 15.1272 14.2401 12 14.2401C8.87284 14.2401 6.04343 13.7066 4.03875 12.8713C3.03641 12.4537 2.24284 11.9592 1.72219 11.4463C1.20153 10.9334 0.96 10.4272 0.96 9.92007C0.96 9.46281 1.15452 9.0101 1.57594 8.54569C1.99736 8.08129 2.64377 7.625 3.47156 7.22382C3.52834 7.19638 3.57915 7.15802 3.6211 7.11093C3.66304 7.06385 3.6953 7.00896 3.71604 6.94941C3.73677 6.88986 3.74556 6.8268 3.74192 6.76385C3.73828 6.70089 3.72227 6.63927 3.69481 6.58251C3.66735 6.52574 3.62898 6.47494 3.58188 6.43301C3.53479 6.39107 3.47989 6.35883 3.42033 6.33811C3.36077 6.3174 3.29772 6.30862 3.23476 6.31228C3.17181 6.31594 3.1102 6.33197 3.05344 6.35944C2.14699 6.79874 1.40161 7.30876 0.865312 7.89976C0.329014 8.49075 0 9.18213 0 9.92007C0 10.7385 0.402906 11.4951 1.04813 12.1307C1.69334 12.7663 2.58702 13.3063 3.66937 13.7573C5.83409 14.6592 8.76476 15.2001 12 15.2001C15.2352 15.2001 18.1659 14.6592 20.3306 13.7573C21.413 13.3063 22.3067 12.7663 22.9519 12.1307C23.5971 11.4951 24 10.7385 24 9.92007C24 9.15932 23.6503 8.44928 23.0841 7.84538C22.5178 7.24149 21.7327 6.7222 20.7778 6.27882C20.7052 6.24384 20.6249 6.22772 20.5444 6.23194Z" fill="#808080"/>
</svg>
